# ProBuilder 5.0.6
# https://unity3d.com/unity/features/worldbuilding/probuilder
# 21/2/2023 7:34:40 p. m.

mtllib ./Room4.mtl
o Room4

g Room4
v -84.38306 0 108.1186
v -93.31062 0 116.2826
v -84.38306 0.5 108.1186
v -93.31062 0.5 116.2826
v -99.64777 0 109.5986
v -99.64777 0.5 109.5986
v -104.7834 0 126.4029
v -114.3954 0 136.1554
v -104.7834 0.5 126.4029
v -114.3954 0.5 136.1554
v -122.9185 0 130.1921
v -122.9185 0.5 130.1921
v -117.3309 0 112.0682
v -117.3309 0.5 112.0682
v -130.4771 0 134.4883
v -130.4771 0.5 134.4883
v -143.7034 0 119.3781
v -143.7034 0.5 119.3781
v -136.9678 0 114.8552
v -136.9678 0.5 114.8552
v -136.9304 0 104.8204
v -136.9304 0.5 104.8204
v -123.3021 -1.855721E-08 94.70435
v -123.3021 0.5 94.70435
v -113.6789 0 109.1028
v -113.6789 0.5 109.1028
v -116.7811 -1.181342E-08 101.5823
v -114.81 0 101.7868
v -116.7811 0.5 101.5823
v -114.81 0.5 101.7868
v -111.013 0 105.3022
v -111.013 0.5 105.3022
v -106.8144 0 109.4403
v -106.8144 0.5 109.4403
v -106.3154 0 115.9202
v -106.3154 0.5 115.9202
v -104.0863 0 106.4936
v -104.0863 0.5 106.4936
v -110.4353 0 99.79708
v -101.8815 -7.629395E-06 90.87713
v -110.4353 0.5 99.79708
v -101.8815 0.4999924 90.87713
v -95.41636 0 96.58942
v -95.41636 0.5 96.58942
v -80.8979 -7.629395E-06 82.97424
v -80.8979 0.4999924 82.97424
v -62.16796 7.629395E-06 103.7116
v -62.16796 0.5000076 103.7116
v -76.06984 0 114.9995
v -76.06984 0.5 114.9995
v -136.4313 0 105.0726
v -123.36 0 95.37
v -136.4313 4 105.0726
v -136.4688 4 115.1224
v -136.9304 4 104.8204
v -136.9679 4 114.8552
v -123.36 4 95.37
v -123.3021 4 94.70434
v -117.0167 0 102.0605
v -115.0274 0 102.2669
v -115.0274 4 102.2669
v -117.0167 4 102.0605
v -114.81 4 101.7868
v -116.7811 4 101.5823
v -111.3584 0 105.6638
v -111.3584 4 105.6638
v -111.013 4 105.3022
v -106.798 0 110.1585
v -106.798 4 110.1585
v -106.8144 4 109.4403
v -103.4011 0 106.4895
v -103.4011 4 106.4895
v -104.0863 4 106.4936
v -109.7444 0 99.79905
v -109.7444 4 99.79905
v -110.4353 4 99.79708
v -101.8529 -7.629395E-06 91.56965
v -101.8529 3.999992 91.56965
v -101.8815 3.999992 90.87713
v -95.40634 0 97.26548
v -95.40634 4 97.26548
v -95.41636 4 96.58942
v -80.92749 -7.629395E-06 83.68745
v -80.92749 3.999992 83.68745
v -80.8979 3.999992 82.97424
v -62.89226 7.629395E-06 103.6557
v -62.89226 4.000008 103.6557
v -62.16796 4.000008 103.7116
v -76.0668 0 114.353
v -76.0668 4 114.353
v -76.06984 4 114.9995
v -84.39941 0 107.456
v -84.39941 4 107.456
v -84.38306 4 108.1186
v -93.28565 0 115.5822
v -93.28565 4 115.5822
v -93.31062 4 116.2826
v -99.62894 0 108.8917
v -99.62894 4 108.8917
v -99.64777 4 109.5986
v -106.3194 0 115.235
v -106.3194 4 115.235
v -106.3154 4 115.9202
v -113.6574 0 108.4413
v -113.6574 4 108.4413
v -113.6789 4 109.1028
v -118.0489 0 112.0071
v -118.0489 4 112.0071
v -117.3309 4 112.0682
v -105.4655 0 126.3827
v -105.4655 4 126.3827
v -104.7834 4 126.4029
v -114.455 0 135.5035
v -114.455 4 135.5035
v -114.3954 4 136.1554
v -122.8908 0 129.6013
v -122.8908 4 129.6013
v -122.9185 4 130.1921
v -130.3695 0 133.852
v -130.3695 4 133.852
v -130.4771 4 134.4883
v -142.9529 0 119.4764
v -142.9529 4 119.4764
v -143.7034 4 119.3781
v -136.4688 0 115.1224
v -123.36 0.5 95.37
v -136.4313 0.5 105.0726
v -136.4688 0.5 115.1224
v -142.9529 0.5 119.4764
v -130.3695 0.5 133.852
v -122.8908 0.5 129.6013
v -114.455 0.5 135.5035
v -105.4655 0.5 126.3827
v -118.0489 0.5 112.0071
v -113.6574 0.5 108.4413
v -106.3194 0.5 115.235
v -99.62894 0.5 108.8917
v -93.28565 0.5 115.5822
v -84.39941 0.5 107.456
v -76.0668 0.5 114.353
v -62.89226 0.5000076 103.6557
v -80.92749 0.4999924 83.68745
v -95.40634 0.5 97.26548
v -101.8529 0.4999924 91.56965
v -109.7444 0.5 99.79905
v -103.4011 0.5 106.4895
v -106.798 0.5 110.1585
v -111.3584 0.5 105.6638
v -115.0274 0.5 102.2669
v -117.0167 0.5 102.0605
v -121.2112 0 96.75242
v -121.2071 0.5 96.75719
v -121.6354 0 97.16324
v -121.6354 4 97.16324
v -121.2057 4 96.75879
v -121.6354 0.5 97.16324
v -119.7934 0.5 99.05109
v -119.3736 0.5 98.67995
v -119.3782 0 98.6851
v -119.7934 0 99.05109
v -119.372 4 98.67823
v -119.7934 4 99.05109

vt 20.1602 0
vt 8.062614 0
vt 20.1602 0.5
vt 8.062614 0.5
vt 35.85073 0
vt 26.64012 0
vt 35.85073 0.5
vt 26.64012 0.5
vt -9.062131 0
vt -22.75535 0
vt -9.062131 0.5
vt -22.75535 0.5
vt 30.72662 0
vt 20.32453 0
vt 30.72662 0.5
vt 20.32453 0.5
vt -16.53563 0
vt -35.58622 0
vt -16.53563 0.5
vt -35.58622 0.5
vt -16.8232 0
vt -25.5174 0
vt -16.8232 0.5
vt -25.5174 0.5
vt 24.74712 0
vt 4.665947 0
vt 24.74712 0.5
vt 4.665947 0.5
vt 30.27285 0
vt 22.15963 0
vt 30.27285 0.5
vt 22.15963 0.5
vt 19.53592 0
vt 9.500982 0
vt 19.53592 0.5
vt 9.500982 0.5
vt 16.5292 0
vt -0.4432325 -1.855721E-08
vt 16.5292 0.5
vt -0.4432325 0.5
vt -1.140755 0
vt -5.845099 0
vt -1.140755 0.5
vt -5.845099 0.5
vt -7.184962 -1.181342E-08
vt -9.166667 0
vt -7.184962 0.5
vt -9.166667 0.5
vt -10.63333 0
vt -15.80781 0
vt -10.63333 0.5
vt -15.80781 0.5
vt -15.76574 0
vt -21.6608 0
vt -15.76574 0.5
vt -21.6608 0.5
vt 26.46845 0
vt 16.43365 0
vt 26.46845 0.5
vt 16.43365 0.5
vt 7.417965 0
vt -1.770035 0
vt 7.417965 0.5
vt -1.770035 0.5
vt -0.9158673 0
vt -4.931545 0
vt -0.9158673 0.5
vt -4.931545 0.5
vt -5.750355 0
vt -18.10888 -7.629395E-06
vt -5.750355 0.5
vt -18.10888 0.4999924
vt -13.12097 -7.629395E-06
vt -21.74815 0
vt -13.12097 0.4999924
vt -21.74815 0.5
vt 21.33306 0
vt 12.10521 0
vt 21.33306 0.5
vt 12.10521 0.5
vt -19.54889 0
vt -39.45263 -7.629395E-06
vt -19.54889 0.5
vt -39.45263 0.4999924
vt -19.26217 -7.629395E-06
vt -47.20588 7.629395E-06
vt -19.26217 0.4999924
vt -47.20588 0.5000076
vt 42.24631 7.629395E-06
vt 24.33883 0
vt 42.24631 0.5000076
vt 24.33883 0.5
vt 48.94617 0
vt 38.15469 0
vt 48.94617 0.5
vt 38.15469 0.5
vt -12 11
vt 0 0
vt -12.52243 10.80061
vt -0.01113159 -0.6680802
vt 12 11
vt 11 21
vt 12.52243 10.80061
vt 11.52393 20.78574
vt 0.01113129 -0.6680832
vt 7 6
vt 9 6
vt 7.184962 5.5
vt 9.166667 5.5
vt -9 6
vt -7 6
vt -9.166664 5.5
vt -7.184959 5.5
vt 13 9
vt 13.30625 8.604687
vt -13 9
vt -13.30625 8.604691
vt 18 13
vt 17.90952 12.2873
vt -18 13
vt -17.90952 12.28731
vt 21 9
vt 20.31893 9.074762
vt -21 9
vt -20.31892 9.07476
vt 14 3
vt 13.31262 3.069359
vt -14 3
vt -13.31262 3.069359
vt 21 -6
vt 20.90002 -6.685866
vt -21 -6
vt -14 3
vt -20.90002 -6.685867
vt 28 -1
vt 27.92025 -1.671418
vt -28 -1.000001
vt -21 -6
vt -27.92025 -1.671418
vt 41 -16
vt 40.95581 -16.71245
vt -41 -16
vt -28 -0.9999999
vt -40.95581 -16.71245
vt 61 2
vt 61.7262 1.980903
vt -61 2.000003
vt -41 -16
vt -61.7262 1.980907
vt 49 14
vt 49.06371 14.6434
vt -49 14
vt -61 2
vt -49.06371 14.6434
vt 40 8
vt 40.08466 8.657362
vt -40 8
vt -40.08466 8.657364
vt 32 17
vt 32.04745 17.69921
vt -32 17
vt -32.04745 17.69921
vt 25 11
vt 25.05423 11.70502
vt -25 11
vt -25.05423 11.70502
vt 19 18
vt 19.07476 18.68107
vt -19 18
vt -19.07476 18.68108
vt 11 12
vt 11.04692 12.66019
vt -11 12
vt -11.04692 12.66019
vt 7 16
vt 7.720444 15.98666
vt -7 16
vt -7.720444 15.98666
vt 21 29
vt 21.68059 28.94966
vt -21 29
vt -21.68059 28.94965
vt 13 39
vt 13.1265 39.64226
vt -13 39
vt -13.1265 39.64226
vt 4 34
vt 4.033447 34.59056
vt -4 34
vt -4.033447 34.59056
vt -3 39
vt -3.041311 39.64396
vt 3 39
vt 3.041313 39.64395
vt -17 26
vt -17.75667 25.9797
vt 17 26
vt 17.75667 25.97971
vt -11 21
vt -11.52392 20.78575
vt 1.529943E-08 0.5
vt -16.27882 0.5
vt 0 4
vt -16.27882 4
vt 16.5292 0.4999997
vt 16.5292 4
vt -0.4432348 4
vt -9.751365 0.5
vt -19.80124 0.5
vt -9.751365 4
vt -19.80124 4
vt 19.53592 4.000025
vt 9.500984 4.000025
vt -21.89431 0.5
vt -29.70456 0.5
vt -21.89431 4
vt -29.70456 4
vt 30.27285 4.000004
vt 22.15964 4.000004
vt -5.234241 0.5
vt -24.33921 0.5
vt -5.234241 4
vt -24.33921 4
vt 24.74712 0.4999618
vt 4.665946 0.4999618
vt 24.74712 3.999962
vt 4.665947 3.999962
vt 25.10949 0.5
vt 16.50717 0.5
vt 25.10949 4
vt 16.50717 4
vt -16.8232 4.000002
vt -25.5174 4.000002
vt -20.00849 0.5
vt -30.30412 0.5
vt -20.00849 4
vt -30.30412 4
vt 30.72662 0.4999805
vt 20.32453 0.4999805
vt 30.72661 3.99998
vt 20.32453 3.99998
vt 22.33285 0.5
vt 9.5266 0.5
vt 22.33285 4
vt 9.5266 4
vt -9.062132 0.4999881
vt -22.75535 0.4999881
vt -9.06213 3.999988
vt -22.75535 3.999988
vt 35.12175 0.5
vt 16.01677 0.5
vt 35.12175 4
vt 16.01677 4
vt -16.53563 4.000001
vt -35.58622 4.000001
vt 6.363961 0.5
vt 0.7071068 0.5
vt 6.363961 4
vt 0.7071068 4
vt -1.140751 4.000003
vt -5.8451 4.000003
vt -16 0.5
vt -26 0.5
vt -16 4
vt -26 4
vt 26.46845 4.000004
vt 16.43365 4.000004
vt 1.301583 0.5
vt -7.917961 0.5
vt 1.301583 4
vt -7.917961 4
vt 7.417965 0.4999827
vt -1.770034 0.4999827
vt 7.417963 3.999983
vt -1.770038 3.999983
vt -26.14012 0.5
vt -35.35966 0.5
vt -26.14012 4
vt -35.35966 4
vt 35.85074 4.000003
vt 26.64012 4.000003
vt -8.553684 0.5
vt -20.59528 0.5
vt -8.553684 4
vt -20.59528 4
vt 20.1602 4.000013
vt 8.062615 4.000013
vt -37.71962 0.5
vt -48.53627 0.5
vt -37.71962 4
vt -48.53627 4
vt 48.94617 0.4999773
vt 38.15469 0.4999773
vt 48.94617 3.999977
vt 38.15469 3.999977
vt -24.74874 0.5
vt -41.7193 0.5000076
vt -24.74874 4
vt -41.7193 4.000008
vt 42.24631 4.000017
vt 24.33883 4.00001
vt 46.67887 0.5000076
vt 19.77162 0.4999924
vt 46.67887 4.000008
vt 19.77162 3.999992
vt -47.20588 0.4999754
vt -19.26218 3.99996
vt -47.20588 3.999975
vt 38.94318 0.4999924
vt 19.09374 0.5
vt 38.94318 3.999992
vt 19.09374 4
vt -39.45263 0.5000024
vt -19.5489 4.00001
vt -39.45263 4.000002
vt 22.2033 0.5
vt 13.60097 0.4999924
vt 22.2033 4
vt 13.60097 3.999992
vt -13.12097 0.5000094
vt -13.12097 4.00001
vt -21.74815 4.000017
vt 17.62887 0.4999924
vt 6.227112 0.5
vt 17.62887 3.999992
vt 6.227112 4
vt -5.750355 0.4999973
vt -5.750355 3.999997
vt -18.10888 3.99999
vt -12.58197 0.5
vt -21.80151 0.5
vt -12.58197 4
vt -21.80151 4
vt 21.33306 0.4999981
vt 12.10521 0.4999981
vt 21.33305 3.999998
vt 12.10521 3.999998
vt 5.400001 0.5
vt 0.4000003 0.5
vt 5.400001 4
vt 0.4000003 4
vt -0.9158669 4.00002
vt -4.931545 4.00002
vt 22.17667 0.5
vt 15.77355 0.5
vt 22.17667 4
vt 15.77355 4
vt -15.76574 0.4999995
vt -21.6608 0.4999995
vt -15.76575 4
vt -21.66081 4
vt 15.8 0.5
vt 10.8 0.5
vt 15.8 4
vt 10.8 4
vt -10.63333 0.4999995
vt -15.80781 0.4999995
vt -10.63333 4
vt -15.80782 4
vt 9 0.5
vt 7 0.5
vt 9 4
vt 7 4
vt -7.184959 4
vt -9.166664 4
vt 0.4415661 0.002192988
vt -2.483613 0.002623525
vt -2.489912 0.5026174
vt 0.4415661 0.5021882
vt 1.900508 1.605645
vt 2.279972 1.153241
vt -1.900508 1.605645
vt -2.286095 1.159005
vt 0.441621 0.5001642
vt -2.489846 0.5001965
vt -2.491947 4.000196
vt 0.4416226 4.000164
vt 2.487843 0.5
vt 2.487843 4
vt -3.927474 3.293293
vt -28 -0.9999999
vt -41 -16
vt -9.036196 0.002055057
vt -9.036196 0.5020503
vt -5.146783 0.5026124
vt -5.147337 0.002586974
vt 4.302762 2.886393
vt 3.927474 3.293293
vt -4.308156 2.878917
vt -5.146718 0.5001962
vt -9.036145 0.5001543
vt -9.036143 4.000154
vt -5.146533 4.000197
vt 9.219497 0.5
vt 5.125002 0.5
vt 5.125002 4
vt 9.219497 4
vt -0.2343221 0.5
vt -0.2343221 4
vt -0.7947288 0.5
vt -0.7970173 4
vt 0.02654949 4
vt 0.02654949 0.5
vt 0.6166043 4
vt 0.6166946 0.5
vt -4.306808 2.880786
vt -2.284564 1.157564

vn 0.6748421 0 0.7379622
vn -0.7256851 0 0.688027
vn 0.7122175 0 0.7019589
vn -0.5732788 0 0.8193604
vn 0.7524549 0 -0.6586438
vn 0.4941408 0 0.869382
vn -0.7524549 0 0.6586438
vn -0.5574698 0 -0.8301972
vn -0.999993 0 -0.003734632
vn -0.596027 0 -0.8029645
vn 0.6303429 0 0.7763168
vn 0.1032191 0 -0.9946586
vn 0.6793705 0 -0.7337954
vn 0.701959 0 -0.7122174
vn -0.6793705 0 0.7337955
vn 0.688027 0 0.7256852
vn -0.7337955 0 -0.6793705
vn -0.7217656 0 -0.6921376
vn 0.6621265 0 -0.7493922
vn -0.6840514 0 -0.7294339
vn 0.7421137 0 -0.670274
vn -0.6376209 0 0.7703503
vn 0 -1 0
vn 0 1 0
vn 0.596027 -1.332608E-08 0.8029644
vn 0.999993 0 0.003734624
vn 0.5574698 0 0.8301972
vn -0.4941408 0 -0.8693819
vn 0.5732787 0 -0.8193605
vn -0.7122175 0 -0.701959
vn -0.6303429 0 -0.7763168
vn -0.688027 0 -0.7256851
vn 0.7256851 0 -0.688027
vn -0.6748421 0 -0.7379622
vn 0.6376209 0 -0.7703504
vn -0.7421137 0 0.670274
vn 0.6840513 0 0.7294339
vn -0.6621265 0 0.7493922
vn 0.7217656 0 0.6921375
vn 0.7337955 0 0.6793705
vn -0.701959 0 0.7122175
vn -0.1032191 0 0.9946586
vn 0.6998225 0.0005263811 -0.7143164
vn 0.6997583 0.00105283 -0.714379
vn 0.6998869 -6.779697E-08 -0.7142538
vn -0.7207614 0 0.6931832
vn 0.7446217 0 -0.6674867
vn 0.7451752 -0.006869001 -0.6667974
vn 0.7457287 -0.013738 -0.6661081
vn 0.7245878 -0.006577402 -0.6891122
vn 0.7236903 0.0006237798 -0.6901245
vn 0.7254853 -0.01377858 -0.6880999
vn 0.745995 -0.0003268749 -0.6659513
vn 0.7457991 4.584816E-07 -0.6661709
vn 0.746191 -0.0006542082 -0.6657315
vn -0.7349459 0 0.6781258
vn -0.6622852 0 -0.7492518
vn -0.662648 -7.753314E-05 -0.7489311
vn 0.6854524 0 0.7281174
vn 0.6867461 -0.0003000548 0.7268951
vn 0.6880398 -0.0006001095 0.7256728

usemtl SpaceshipMaterial
f 138/161/24 139/157/24 137/165/24
f 132/185/24 133/181/24 131/189/24
f 133/181/24 134/177/24 131/189/24
f 130/193/24 128/102/24 129/197/24
f 130/193/24 131/189/24 128/102/24
f 131/189/24 134/177/24 128/102/24
f 128/102/24 134/177/24 127/101/24
f 127/101/24 156/372/24 126/98/24
f 127/101/24 157/380/24 156/372/24
f 127/101/24 134/177/24 157/380/24
f 134/177/24 150/111/24 157/380/24
f 134/177/24 135/173/24 150/111/24
f 135/173/24 149/110/24 150/111/24
f 135/173/24 148/116/24 149/110/24
f 147/120/24 148/116/24 135/173/24
f 136/169/24 147/120/24 135/173/24
f 136/169/24 137/165/24 147/120/24
f 147/120/24 137/165/24 146/124/24
f 145/128/24 143/381/24 144/138/24
f 146/124/24 143/381/24 145/128/24
f 146/124/24 137/165/24 143/381/24
f 137/165/24 139/157/24 143/381/24
f 143/381/24 139/157/24 142/382/24
f 139/157/24 141/147/24 142/382/24
f 140/152/24 141/147/24 139/157/24
f 4/4/1 2/2/1 1/1/1
f 1/1/1 3/3/1 4/4/1
f 6/8/2 5/6/2 2/5/2
f 2/5/2 4/7/2 6/8/2
f 10/12/3 8/10/3 7/9/3
f 7/9/3 9/11/3 10/12/3
f 12/16/4 11/14/4 8/13/4
f 8/13/4 10/15/4 12/16/4
f 9/20/5 7/18/5 13/17/5
f 13/17/5 14/19/5 9/20/5
f 16/24/6 15/22/6 11/21/6
f 11/21/6 12/23/6 16/24/6
f 18/28/7 17/26/7 15/25/7
f 15/25/7 16/27/7 18/28/7
f 20/32/8 19/30/8 17/29/8
f 17/29/8 18/31/8 20/32/8
f 22/36/9 21/34/9 19/33/9
f 19/33/9 20/35/9 22/36/9
f 24/40/10 23/38/10 21/37/10
f 21/37/10 22/39/10 24/40/10
f 14/44/11 13/42/11 25/41/11
f 25/41/11 26/43/11 14/44/11
f 30/48/12 28/46/12 27/45/12
f 27/45/12 29/47/12 30/48/12
f 32/52/13 31/50/13 28/49/13
f 28/49/13 30/51/13 32/52/13
f 34/56/14 33/54/14 31/53/14
f 31/53/14 32/55/14 34/56/14
f 26/60/15 25/58/15 35/57/15
f 35/57/15 36/59/15 26/60/15
f 36/64/16 35/62/16 5/61/16
f 5/61/16 6/63/16 36/64/16
f 38/68/17 37/66/17 33/65/17
f 33/65/17 34/67/17 38/68/17
f 42/72/18 40/70/18 39/69/18
f 39/69/18 41/71/18 42/72/18
f 44/76/19 43/74/19 40/73/19
f 40/73/19 42/75/19 44/76/19
f 41/80/2 39/78/2 37/77/2
f 37/77/2 38/79/2 41/80/2
f 46/84/20 45/82/20 43/81/20
f 43/81/20 44/83/20 46/84/20
f 48/88/21 47/86/21 45/85/21
f 45/85/21 46/87/21 48/88/21
f 50/92/11 49/90/11 47/89/11
f 47/89/11 48/91/11 50/92/11
f 3/96/22 1/94/22 49/93/22
f 49/93/22 50/95/22 3/96/22
f 23/100/23 52/98/23 51/97/23
f 51/97/23 21/99/23 23/100/23
f 56/104/24 54/102/24 53/101/24
f 53/101/24 55/103/24 56/104/24
f 55/103/24 53/101/24 57/98/24
f 57/98/24 58/105/24 55/103/24
f 28/109/23 60/107/23 59/106/23
f 59/106/23 27/108/23 28/109/23
f 64/113/24 62/111/24 61/110/24
f 61/110/24 63/112/24 64/113/24
f 31/115/23 65/114/23 60/107/23
f 60/107/23 28/109/23 31/115/23
f 63/112/24 61/110/24 66/116/24
f 66/116/24 67/117/24 63/112/24
f 33/119/23 68/118/23 65/114/23
f 65/114/23 31/115/23 33/119/23
f 67/117/24 66/116/24 69/120/24
f 69/120/24 70/121/24 67/117/24
f 37/123/23 71/122/23 68/118/23
f 68/118/23 33/119/23 37/123/23
f 70/121/24 69/120/24 72/124/24
f 72/124/24 73/125/24 70/121/24
f 39/127/23 74/126/23 71/122/23
f 71/122/23 37/123/23 39/127/23
f 73/125/24 72/124/24 75/128/24
f 75/128/24 76/129/24 73/125/24
f 40/131/23 77/130/23 74/126/23
f 74/126/23 39/127/23 40/131/23
f 76/129/24 75/133/24 78/132/24
f 78/132/24 79/134/24 76/129/24
f 43/136/23 80/135/23 77/130/23
f 77/130/23 40/131/23 43/136/23
f 79/134/24 78/138/24 81/137/24
f 81/137/24 82/139/24 79/134/24
f 45/141/23 83/140/23 80/135/23
f 80/135/23 43/136/23 45/141/23
f 82/139/24 81/143/24 84/142/24
f 84/142/24 85/144/24 82/139/24
f 47/146/23 86/145/23 83/140/23
f 83/140/23 45/141/23 47/146/23
f 85/144/24 84/148/24 87/147/24
f 87/147/24 88/149/24 85/144/24
f 49/151/23 89/150/23 86/145/23
f 86/145/23 47/146/23 49/151/23
f 88/149/24 87/153/24 90/152/24
f 90/152/24 91/154/24 88/149/24
f 1/156/23 92/155/23 89/150/23
f 89/150/23 49/151/23 1/156/23
f 91/154/24 90/152/24 93/157/24
f 93/157/24 94/158/24 91/154/24
f 2/160/23 95/159/23 92/155/23
f 92/155/23 1/156/23 2/160/23
f 94/158/24 93/157/24 96/161/24
f 96/161/24 97/162/24 94/158/24
f 5/164/23 98/163/23 95/159/23
f 95/159/23 2/160/23 5/164/23
f 97/162/24 96/161/24 99/165/24
f 99/165/24 100/166/24 97/162/24
f 35/168/23 101/167/23 98/163/23
f 98/163/23 5/164/23 35/168/23
f 100/166/24 99/165/24 102/169/24
f 102/169/24 103/170/24 100/166/24
f 25/172/23 104/171/23 101/167/23
f 101/167/23 35/168/23 25/172/23
f 103/170/24 102/169/24 105/173/24
f 105/173/24 106/174/24 103/170/24
f 13/176/23 107/175/23 104/171/23
f 104/171/23 25/172/23 13/176/23
f 106/174/24 105/173/24 108/177/24
f 108/177/24 109/178/24 106/174/24
f 7/180/23 110/179/23 107/175/23
f 107/175/23 13/176/23 7/180/23
f 109/178/24 108/177/24 111/181/24
f 111/181/24 112/182/24 109/178/24
f 8/184/23 113/183/23 110/179/23
f 110/179/23 7/180/23 8/184/23
f 112/182/24 111/181/24 114/185/24
f 114/185/24 115/186/24 112/182/24
f 11/188/23 116/187/23 113/183/23
f 113/183/23 8/184/23 11/188/23
f 115/186/24 114/185/24 117/189/24
f 117/189/24 118/190/24 115/186/24
f 15/192/23 119/191/23 116/187/23
f 116/187/23 11/188/23 15/192/23
f 118/190/24 117/189/24 120/193/24
f 120/193/24 121/194/24 118/190/24
f 17/196/23 122/195/23 119/191/23
f 119/191/23 15/192/23 17/196/23
f 121/194/24 120/193/24 123/197/24
f 123/197/24 124/198/24 121/194/24
f 19/200/23 125/199/23 122/195/23
f 122/195/23 17/196/23 19/200/23
f 124/198/24 123/197/24 54/102/24
f 54/102/24 56/104/24 124/198/24
f 21/99/23 51/97/23 125/199/23
f 125/199/23 19/200/23 21/99/23
f 53/204/25 127/202/25 126/201/25
f 126/201/25 57/203/25 53/204/25
f 58/207/10 24/40/10 22/205/10
f 22/205/10 55/206/10 58/207/10
f 54/211/26 128/209/26 127/208/26
f 127/208/26 53/210/26 54/211/26
f 55/213/9 22/36/9 20/35/9
f 20/35/9 56/212/9 55/213/9
f 123/217/27 129/215/27 128/214/27
f 128/214/27 54/216/27 123/217/27
f 56/219/8 20/32/8 18/31/8
f 18/31/8 124/218/8 56/219/8
f 120/223/5 130/221/5 129/220/5
f 129/220/5 123/222/5 120/223/5
f 124/227/7 18/225/7 16/224/7
f 16/224/7 121/226/7 124/227/7
f 117/231/28 131/229/28 130/228/28
f 130/228/28 120/230/28 117/231/28
f 121/233/6 16/24/6 12/23/6
f 12/23/6 118/232/6 121/233/6
f 114/237/29 132/235/29 131/234/29
f 131/234/29 117/236/29 114/237/29
f 118/241/4 12/239/4 10/238/4
f 10/238/4 115/240/4 118/241/4
f 111/245/30 133/243/30 132/242/30
f 132/242/30 114/244/30 111/245/30
f 115/249/3 10/247/3 9/246/3
f 9/246/3 112/248/3 115/249/3
f 108/253/7 134/251/7 133/250/7
f 133/250/7 111/252/7 108/253/7
f 112/255/5 9/20/5 14/19/5
f 14/19/5 109/254/5 112/255/5
f 105/259/31 135/257/31 134/256/31
f 134/256/31 108/258/31 105/259/31
f 109/261/11 14/44/11 26/43/11
f 26/43/11 106/260/11 109/261/11
f 102/265/13 136/263/13 135/262/13
f 135/262/13 105/264/13 102/265/13
f 106/267/15 26/60/15 36/59/15
f 36/59/15 103/266/15 106/267/15
f 99/271/32 137/269/32 136/268/32
f 136/268/32 102/270/32 99/271/32
f 103/275/16 36/273/16 6/272/16
f 6/272/16 100/274/16 103/275/16
f 96/279/33 138/277/33 137/276/33
f 137/276/33 99/278/33 96/279/33
f 100/281/2 6/8/2 4/7/2
f 4/7/2 97/280/2 100/281/2
f 93/285/34 139/283/34 138/282/34
f 138/282/34 96/284/34 93/285/34
f 97/287/1 4/4/1 3/3/1
f 3/3/1 94/286/1 97/287/1
f 90/291/35 140/289/35 139/288/35
f 139/288/35 93/290/35 90/291/35
f 94/295/22 3/293/22 50/292/22
f 50/292/22 91/294/22 94/295/22
f 87/299/31 141/297/31 140/296/31
f 140/296/31 90/298/31 87/299/31
f 91/301/11 50/92/11 48/91/11
f 48/91/11 88/300/11 91/301/11
f 84/305/36 142/303/36 141/302/36
f 141/302/36 87/304/36 84/305/36
f 88/308/21 48/306/21 46/87/21
f 46/87/21 85/307/21 88/308/21
f 81/312/37 143/310/37 142/309/37
f 142/309/37 84/311/37 81/312/37
f 85/315/20 46/313/20 44/83/20
f 44/83/20 82/314/20 85/315/20
f 78/319/38 144/317/38 143/316/38
f 143/316/38 81/318/38 78/319/38
f 82/322/19 44/76/19 42/320/19
f 42/320/19 79/321/19 82/322/19
f 75/326/39 145/324/39 144/323/39
f 144/323/39 78/325/39 75/326/39
f 79/329/18 42/72/18 41/327/18
f 41/327/18 76/328/18 79/329/18
f 72/333/33 146/331/33 145/330/33
f 145/330/33 75/332/33 72/333/33
f 76/337/2 41/335/2 38/334/2
f 38/334/2 73/336/2 76/337/2
f 69/341/40 147/339/40 146/338/40
f 146/338/40 72/340/40 69/341/40
f 73/343/17 38/68/17 34/67/17
f 34/67/17 70/342/17 73/343/17
f 66/347/41 148/345/41 147/344/41
f 147/344/41 69/346/41 66/347/41
f 70/351/14 34/349/14 32/348/14
f 32/348/14 67/350/14 70/351/14
f 61/355/15 149/353/15 148/352/15
f 148/352/15 66/354/15 61/355/15
f 67/359/13 32/357/13 30/356/13
f 30/356/13 63/358/13 67/359/13
f 62/363/42 150/361/42 149/360/42
f 149/360/42 61/362/42 62/363/42
f 63/365/12 30/48/12 29/47/12
f 29/47/12 64/364/12 63/365/12
f 151/367/44 23/366/43 24/369/45
f 24/369/45 152/368/43 151/367/44
f 23/100/23 151/371/23 153/370/23
f 153/370/23 52/98/23 23/100/23
f 154/372/24 155/373/24 58/105/24
f 58/105/24 57/98/24 154/372/24
f 152/375/45 24/374/45 58/377/45
f 58/377/45 155/376/45 152/375/45
f 126/201/46 156/378/46 154/379/46
f 154/379/46 57/203/46 126/201/46
f 159/386/48 158/385/49 29/384/48
f 29/384/48 27/383/47 159/386/48
f 151/367/50 152/368/51 158/385/50
f 158/385/50 159/386/52 151/367/50
f 159/387/23 27/108/23 59/106/23
f 59/106/23 160/388/23 159/387/23
f 151/371/23 159/387/23 160/388/23
f 160/388/23 153/370/23 151/371/23
f 64/113/24 161/389/24 162/380/24
f 162/380/24 62/111/24 64/113/24
f 29/391/54 158/390/53 161/393/55
f 161/393/55 64/392/53 29/391/54
f 162/396/56 157/395/56 150/394/56
f 150/394/56 62/397/56 162/396/56
f 158/400/57 157/398/57 162/399/57
f 162/399/57 161/401/58 158/400/57
f 155/404/60 154/402/59 156/403/60
f 156/403/60 152/405/61 155/404/60
f 158/406/24 152/407/24 156/372/24
f 156/372/24 157/380/24 158/406/24

