# ProBuilder 5.0.6
# https://unity3d.com/unity/features/worldbuilding/probuilder
# 21/2/2023 7:35:58 p. m.

mtllib ./Room9.mtl
o Room9

g Room9
v -233.78 0.5 78.35
v -240.78 0.5 81.35
v -252.78 0.5 80.35
v -259.78 0.5 74.35
v -258.78 0.5 61.35
v -249.78 0.5 54.35
v -233.78 0.5 54.35
v -229.78 0.5 55.35
v -224.78 0.5 50.35
v -220.78 0.5 54.35
v -225.78 0.5 59.35
v -222.78 0.5 63.35
v -215.78 0.5 64.35
v -216.78 0.5 70.35
v -223.78 0.5 71.35
v -224.78 0.5 74.35
v -223.4034 0 71.80127
v -224.3754 0 74.71733
v -223.4034 0.5 71.80127
v -224.3754 0.5 74.71733
v -233.58 0 78.80826
v -233.5808 0.5 78.82863
v -252.9826 0 80.83485
v -260.298 0 74.56455
v -252.9826 0.5 80.83485
v -260.298 0.5 74.56455
v -259.2616 0 61.09112
v -259.2616 0.5 61.09112
v -249.9516 0 53.85
v -249.9516 0.5 53.85
v -240.6975 0 81.85861
v -240.6975 0.5 81.85861
v -233.7184 0 53.85
v -233.7184 0.5 53.85
v -229.9334 0 54.79626
v -224.78 0 49.64289
v -229.9334 0.5 54.79626
v -224.78 0.5 49.64289
v -220.0729 0 54.35
v -220.0729 0.5 54.35
v -225.1198 0 59.39692
v -225.1198 0.5 59.39692
v -222.5043 0 62.88432
v -222.5043 0.5 62.88432
v -216.347 0 70.79321
v -216.347 0.5 70.79321
v -215.2027 0 63.9274
v -215.2027 0.5 63.9274
v -249.78 0 54.35
v -233.78 0 54.35
v -249.78 4 54.35
v -258.78 4 61.35
v -249.9516 4 53.85
v -259.2616 4 61.09112
v -233.78 4 54.35
v -233.7184 4 53.85
v -229.78 0 55.35
v -229.78 4 55.35
v -229.9334 4 54.79626
v -224.78 0 50.35
v -224.78 4 50.35
v -224.78 4 49.64289
v -220.78 0 54.35
v -220.78 4 54.35
v -220.0729 4 54.35
v -225.78 0 59.35
v -225.78 4 59.35
v -225.1198 4 59.39692
v -222.78 0 63.35
v -222.78 4 63.35
v -222.5043 4 62.88432
v -215.78 0 64.35
v -215.78 4 64.35
v -215.2027 4 63.9274
v -216.78 0 70.35
v -216.78 4 70.35
v -216.347 4 70.79321
v -223.78 0 71.35
v -223.78 4 71.35
v -223.4034 4 71.80127
v -224.78 0 74.35
v -224.78 4 74.35
v -224.3754 4 74.71734
v -233.78 0 78.35
v -240.78 0 81.35
v -240.78 4 81.35
v -233.78 4 78.35
v -240.6975 4 81.85861
v -233.5811 4 78.83543
v -252.78 0 80.35
v -252.78 4 80.35
v -252.9826 4 80.83485
v -259.78 0 74.35
v -259.78 4 74.35
v -260.298 4 74.56455
v -258.78 0 61.35
v -232.7357 0.5 77.80089
v -232.7357 4 77.80089
v -232.5365 0.5 78.27952
v -232.5368 4 78.28632

vt 1 0
vt 8 3
vt 20 2
vt 27 -4
vt 26 -17
vt 17 -24
vt 1 -24
vt -3 -23
vt -8 -28
vt -12 -24
vt -7 -19
vt -10 -15
vt -17 -14
vt -16 -8
vt -9 -7
vt -8 -4
vt 9.177816 0
vt 6.104016 0
vt 9.177816 0.5
vt 6.104016 0.5
vt 9.155586 0
vt -0.9171448 0
vt 9.155586 0.5
vt -0.926203 0.5
vt -13.72187 0
vt -23.35674 0
vt -13.72187 0.5
vt -23.35674 0.5
vt -1.663765 0
vt -15.17701 0
vt -1.663765 0.5
vt -15.17701 0.5
vt 10.30735 0
vt -1.487139 0
vt 10.30735 0.5
vt -1.487139 0.5
vt -7.598741 0
vt -19.9265 0
vt -7.598741 0.5
vt -19.9265 0.5
vt -0.9158118 0.00389885
vt -8.659408 0.003898841
vt -0.9246257 0.5042369
vt -8.659408 0.503561
vt 17.17155 0
vt 0.9384472 0
vt 17.17155 0.5
vt 0.9384472 0.5
vt -18.66787 0
vt -25.95584 0
vt -18.66787 0.5
vt -25.95584 0.5
vt 14.64214 0
vt 7.985283 0
vt 14.64214 0.5
vt 7.985283 0.5
vt 25.95584 0
vt 18.81842 0
vt 25.95584 0.5
vt 18.81842 0.5
vt 6.852551 0
vt 2.950987 0
vt 6.852551 0.5
vt 2.950987 0.5
vt 10.56635 0
vt 6.207106 0
vt 10.56635 0.5
vt 6.207106 0.5
vt 17.33656 0
vt 10.20851 0
vt 17.33656 0.5
vt 10.20851 0.5
vt -7.985283 0
vt -15.36101 0
vt -7.985283 0.5
vt -15.36101 0.5
vt 17.11606 0
vt 10.15554 0
vt 17.11606 0.5
vt 10.15554 0.5
vt -17 -24
vt -1 -24
vt -17.17155 -24.5
vt -0.9384472 -24.5
vt 17.17155 -24.5
vt 26.48157 -17.25888
vt 0.938446 -24.5
vt 3 -23
vt 2.846625 -23.55373
vt -2.846619 -23.55373
vt 8 -28
vt 8 -28.70711
vt -8 -28.70711
vt 12 -24
vt 12.70711 -24
vt -12.70711 -24
vt 7 -19
vt 7.660189 -18.95308
vt -7.660187 -18.95308
vt 10 -15
vt 10.27574 -15.46568
vt -10.27574 -15.46568
vt 17 -14
vt 17.57733 -14.4226
vt -17.57733 -14.4226
vt 16 -8
vt 16.43303 -7.556785
vt -16.43303 -7.556786
vt 9 -7
vt 9.376622 -6.548727
vt -9.376617 -6.548729
vt 8 -4
vt 8.404601 -3.632664
vt -8.404602 -3.63266
vt -1 0
vt -0.7999766 0.4582596
vt -8 3
vt -7.917464 3.508611
vt 7.917465 3.508614
vt 0.8011169 0.4854253
vt -20 2
vt -20.20264 2.484846
vt 20.20264 2.484848
vt -27 -4
vt -27.51798 -3.785445
vt 27.51797 -3.785446
vt -26 -17
vt -26.48156 -17.25888
vt -1 0.5
vt -17 0.5
vt -1 4
vt -17 4
vt 6.852549 4.000002
vt 2.950994 4.000002
vt 17.17155 4
vt 0.938446 4
vt 1.315586 0.5
vt -10.08617 0.5
vt 1.315586 4
vt -10.08617 4
vt 10.30736 4.000007
vt -1.48714 4.000007
vt 14.95582 0.5
vt 1.917413 0.5
vt 14.95582 4
vt 1.917413 4
vt -1.663765 0.4999554
vt -15.17701 0.4999554
vt -1.663766 3.999955
vt -15.177 3.999955
vt 23.10309 0.5
vt 13.88355 0.5
vt 23.10309 4
vt 13.88355 4
vt -13.72187 0.4999948
vt -23.35674 0.4999948
vt -13.72187 3.999995
vt -23.35674 3.999995
vt 19.76482 0.5
vt 7.72323 0.5
vt 19.76482 4
vt 7.72323 4
vt -7.598742 4.000003
vt -19.9265 4.000003
vt 8.534919 0.5
vt 0.919145 0.5
vt 8.534919 4
vt 0.919145 4
vt -0.9243271 0.5002214
vt -8.65913 0.5002214
vt -0.9272479 4.000226
vt -8.659133 4.000216
vt -6.324555 0.5
vt -9.486834 0.5
vt -6.324555 4
vt -9.486834 4
vt 9.177816 0.49999
vt 6.104016 0.49999
vt 9.177816 3.99999
vt 6.104012 3.99999
vt -9.899495 0.5
vt -16.97056 0.5
vt -9.899495 4
vt -16.97056 4
vt 17.33656 4.000001
vt 10.20851 4.000001
vt -10.52153 0.5
vt -16.6043 0.5
vt -10.52153 4
vt -16.6043 4
vt 17.11606 4.000009
vt 10.15554 4.000009
vt 14.84924 0.5
vt 7.778174 0.5
vt 14.84924 4
vt 7.778174 4
vt -7.985283 0.4999948
vt -15.36101 0.4999948
vt -7.985289 3.999995
vt -15.36101 3.999995
vt -6 0.5
vt -11 0.5
vt -6 4
vt -11 4
vt 10.56635 0.4999866
vt 6.207106 0.4999866
vt 10.56635 3.999987
vt 6.207101 3.999987
vt -18.38478 0.5
vt -25.45584 0.5
vt -18.38478 4
vt -25.45584 4
vt 25.95584 0.4999985
vt 18.81842 0.4999985
vt 25.95584 3.999999
vt 18.81842 3.999999
vt -8.485281 0.5
vt -14.14214 0.5
vt -8.485281 4
vt -14.14214 4
vt 14.64214 4
vt 7.985284 4
vt 25.45584 0.5
vt 18.38478 0.5
vt 25.45584 4
vt 18.38478 4
vt -18.66787 4.000025
vt -25.95585 4.000025
vt -2.667892 0.5
vt -6.790998 0.5
vt -2.667892 4
vt -6.790998 4
vt 0.4899549 0.5
vt 0.4899549 4
vt -0.02846246 0.5
vt -0.03462715 4
vt 0.8850967 4
vt 0.8850967 0.5
vt -0.2947529 4
vt -0.2947529 0.5
vt -0.8008339 0.4786339
vt 0.04428101 -0.5491104
vt 0.243454 -0.07048035
vt -0.9315751 0.5000848
vt -0.9349864 4.00009
vt 0.2482824 0.5000848
vt 0.244862 4.00009
vt -0.2431641 -0.06368256
vt -0.04428101 -0.5491104

vn 0 1 0
vn 0.9486833 0 0.3162278
vn 0.4061385 0 0.9138116
vn 0.4068304 -0.01824149 0.9131389
vn 0.4075223 -0.03648299 0.9124662
vn -0.6507914 0 0.7592566
vn -0.9970545 0 -0.07669641
vn -0.6139406 0 -0.7893523
vn -0.08304548 0 0.9965457
vn 0.3936532 -0.03675362 0.918524
vn 0.3926931 -0.01837681 0.9193015
vn 0.391733 0 0.9200789
vn 0 0 -1
vn -0.7071068 0 -0.7071067
vn 0.7071068 0 -0.7071067
vn 0.7071068 0 0.7071067
vn 0.2425356 0 -0.9701425
vn 0.8 0 -0.6
vn 0.1414213 0 0.9899495
vn 0.1414213 0 -0.9899495
vn 0.986394 0 0.164399
vn 0 -1 0
vn 0 0 1
vn 0.6139406 0 0.7893522
vn 0.9970545 0 0.07669649
vn 0.6507913 0 -0.7592566
vn 0.08304548 0 -0.9965458
vn -0.3939193 0 -0.919145
vn 0.3917324 -0.001753663 0.9200776
vn 0.3913675 -0.0008770651 0.9202335
vn 0.3910027 -4.67156E-07 0.9203895
vn -0.9486833 0 -0.3162278
vn -0.1414214 0 -0.9899495
vn -0.9863939 0 -0.164399
vn -0.1414214 0 0.9899495
vn -0.8 0 0.6
vn 0.7999996 -1.089903E-07 -0.6000006
vn -0.7071068 0 0.7071068
vn -0.2425356 0 0.9701425
vn 0.9232523 0 -0.3841942
vn 0.9242996 0.000406494 -0.3816575
vn 0.9253469 0.000812988 -0.3791208
vn -0.4654071 0 -0.8850967
vn 0.4654066 -0.001679826 0.8850954

usemtl SpaceshipMaterial
f 1/1/1 16/16/1 15/15/1
f 5/5/1 4/4/1 3/3/1
f 5/5/1 3/3/1 6/6/1
f 3/3/1 2/2/1 6/6/1
f 1/1/1 6/6/1 2/2/1
f 1/1/1 7/7/1 6/6/1
f 10/10/1 9/9/1 8/8/1
f 11/11/1 10/10/1 8/8/1
f 11/11/1 8/8/1 7/7/1
f 1/1/1 11/11/1 7/7/1
f 1/1/1 15/15/1 11/11/1
f 15/15/1 12/12/1 11/11/1
f 14/14/1 12/12/1 15/15/1
f 14/14/1 13/13/1 12/12/1
f 20/20/2 18/18/2 17/17/2
f 17/17/2 19/19/2 20/20/2
f 22/24/5 21/22/4 18/21/3
f 18/21/3 20/23/4 22/24/5
f 26/28/6 24/26/6 23/25/6
f 23/25/6 25/27/6 26/28/6
f 28/32/7 27/30/7 24/29/7
f 24/29/7 26/31/7 28/32/7
f 30/36/8 29/34/8 27/33/8
f 27/33/8 28/35/8 30/36/8
f 25/40/9 23/38/9 31/37/9
f 31/37/9 32/39/9 25/40/9
f 32/44/12 31/42/11 21/41/10
f 21/41/10 22/43/11 32/44/12
f 34/48/13 33/46/13 29/45/13
f 29/45/13 30/47/13 34/48/13
f 38/52/14 36/50/14 35/49/14
f 35/49/14 37/51/14 38/52/14
f 40/56/15 39/54/15 36/53/15
f 36/53/15 38/55/15 40/56/15
f 42/60/16 41/58/16 39/57/16
f 39/57/16 40/59/16 42/60/16
f 37/64/17 35/62/17 33/61/17
f 33/61/17 34/63/17 37/64/17
f 44/68/18 43/66/18 41/65/18
f 41/65/18 42/67/18 44/68/18
f 19/72/19 17/70/19 45/69/19
f 45/69/19 46/71/19 19/72/19
f 48/76/20 47/74/20 43/73/20
f 43/73/20 44/75/20 48/76/20
f 46/80/21 45/78/21 47/77/21
f 47/77/21 48/79/21 46/80/21
f 33/84/22 50/82/22 49/81/22
f 49/81/22 29/83/22 33/84/22
f 54/86/1 52/5/1 51/6/1
f 51/6/1 53/85/1 54/86/1
f 53/85/1 51/6/1 55/7/1
f 55/7/1 56/87/1 53/85/1
f 35/89/22 57/88/22 50/82/22
f 50/82/22 33/84/22 35/89/22
f 56/87/1 55/7/1 58/8/1
f 58/8/1 59/90/1 56/87/1
f 36/92/22 60/91/22 57/88/22
f 57/88/22 35/89/22 36/92/22
f 59/90/1 58/8/1 61/9/1
f 61/9/1 62/93/1 59/90/1
f 39/95/22 63/94/22 60/91/22
f 60/91/22 36/92/22 39/95/22
f 62/93/1 61/9/1 64/10/1
f 64/10/1 65/96/1 62/93/1
f 41/98/22 66/97/22 63/94/22
f 63/94/22 39/95/22 41/98/22
f 65/96/1 64/10/1 67/11/1
f 67/11/1 68/99/1 65/96/1
f 43/101/22 69/100/22 66/97/22
f 66/97/22 41/98/22 43/101/22
f 68/99/1 67/11/1 70/12/1
f 70/12/1 71/102/1 68/99/1
f 47/104/22 72/103/22 69/100/22
f 69/100/22 43/101/22 47/104/22
f 71/102/1 70/12/1 73/13/1
f 73/13/1 74/105/1 71/102/1
f 45/107/22 75/106/22 72/103/22
f 72/103/22 47/104/22 45/107/22
f 74/105/1 73/13/1 76/14/1
f 76/14/1 77/108/1 74/105/1
f 17/110/22 78/109/22 75/106/22
f 75/106/22 45/107/22 17/110/22
f 77/108/1 76/14/1 79/15/1
f 79/15/1 80/111/1 77/108/1
f 18/113/22 81/112/22 78/109/22
f 78/109/22 17/110/22 18/113/22
f 80/111/1 79/15/1 82/16/1
f 82/16/1 83/114/1 80/111/1
f 21/116/22 84/115/22 81/112/22
f 81/112/22 18/113/22 21/116/22
f 31/118/22 85/117/22 84/115/22
f 84/115/22 21/116/22 31/118/22
f 89/120/1 87/1/1 86/2/1
f 86/2/1 88/119/1 89/120/1
f 23/122/22 90/121/22 85/117/22
f 85/117/22 31/118/22 23/122/22
f 88/119/1 86/2/1 91/3/1
f 91/3/1 92/123/1 88/119/1
f 24/125/22 93/124/22 90/121/22
f 90/121/22 23/122/22 24/125/22
f 92/123/1 91/3/1 94/4/1
f 94/4/1 95/126/1 92/123/1
f 27/128/22 96/127/22 93/124/22
f 93/124/22 24/125/22 27/128/22
f 95/126/1 94/4/1 52/5/1
f 52/5/1 54/86/1 95/126/1
f 29/83/22 49/81/22 96/127/22
f 96/127/22 27/128/22 29/83/22
f 51/132/23 6/130/23 7/129/23
f 7/129/23 55/131/23 51/132/23
f 59/134/17 37/64/17 34/63/17
f 34/63/17 56/133/17 59/134/17
f 56/136/13 34/48/13 30/47/13
f 30/47/13 53/135/13 56/136/13
f 52/140/24 5/138/24 6/137/24
f 6/137/24 51/139/24 52/140/24
f 53/142/8 30/36/8 28/35/8
f 28/35/8 54/141/8 53/142/8
f 94/146/25 4/144/25 5/143/25
f 5/143/25 52/145/25 94/146/25
f 54/150/7 28/148/7 26/147/7
f 26/147/7 95/149/7 54/150/7
f 91/154/26 3/152/26 4/151/26
f 4/151/26 94/153/26 91/154/26
f 95/158/6 26/156/6 25/155/6
f 25/155/6 92/157/6 95/158/6
f 86/162/27 2/160/27 3/159/27
f 3/159/27 91/161/27 86/162/27
f 92/164/9 25/40/9 32/39/9
f 32/39/9 88/163/9 92/164/9
f 87/168/28 1/166/28 2/165/28
f 2/165/28 86/167/28 87/168/28
f 88/172/31 32/170/30 22/169/29
f 22/169/29 89/171/30 88/172/31
f 79/176/32 15/174/32 16/173/32
f 16/173/32 82/175/32 79/176/32
f 83/180/2 20/178/2 19/177/2
f 19/177/2 80/179/2 83/180/2
f 76/184/33 14/182/33 15/181/33
f 15/181/33 79/183/33 76/184/33
f 80/186/19 19/72/19 46/71/19
f 46/71/19 77/185/19 80/186/19
f 73/190/34 13/188/34 14/187/34
f 14/187/34 76/189/34 73/190/34
f 77/192/21 46/80/21 48/79/21
f 48/79/21 74/191/21 77/192/21
f 70/196/35 12/194/35 13/193/35
f 13/193/35 73/195/35 70/196/35
f 74/200/20 48/198/20 44/197/20
f 44/197/20 71/199/20 74/200/20
f 67/204/36 11/202/36 12/201/36
f 12/201/36 70/203/36 67/204/36
f 71/208/37 44/206/37 42/205/18
f 42/205/18 68/207/37 71/208/37
f 64/212/14 10/210/14 11/209/14
f 11/209/14 67/211/14 64/212/14
f 68/216/16 42/214/16 40/213/16
f 40/213/16 65/215/16 68/216/16
f 61/220/38 9/218/38 10/217/38
f 10/217/38 64/219/38 61/220/38
f 65/222/15 40/56/15 38/55/15
f 38/55/15 62/221/15 65/222/15
f 58/226/16 8/224/16 9/223/16
f 9/223/16 61/225/16 58/226/16
f 62/228/14 38/52/14 37/51/14
f 37/51/14 59/227/14 62/228/14
f 55/232/39 7/230/39 8/229/39
f 8/229/39 58/231/39 55/232/39
f 99/235/41 97/233/40 98/234/41
f 98/234/41 100/236/42 99/235/41
f 97/240/43 1/238/43 87/237/43
f 87/237/43 98/239/43 97/240/43
f 99/243/22 22/241/22 1/115/22
f 1/115/22 97/242/22 99/243/22
f 100/247/44 89/245/44 22/244/44
f 22/244/44 99/246/44 100/247/44
f 98/249/1 87/1/1 89/120/1
f 89/120/1 100/248/1 98/249/1

