# ProBuilder 5.0.6
# https://unity3d.com/unity/features/worldbuilding/probuilder
# 21/2/2023 7:34:26 p. m.

mtllib ./Room2.mtl
o Room2

g Room2
v -63.65402 0.5 16.67
v -81.40334 0.5 16.57155
v -81.99898 0.5 11.84618
v -79.27214 0.5 11.15706
v -74.05453 0.5 11.35395
v -74.05453 0.5 0.2296257
v -78.28768 0.5 0.03273392
v -78.0908 0.5 -4.79109
v -73.66075 0.5 -4.200417
v -72.97163 0.5 -8.138229
v -68.04937 0.5 -7.744448
v -68.14781 0.5 -3.412853
v -64.60378 0.5 -3.215963
v -64.89912 0.5 1.410969
v -69.52605 0.5 0.9187431
v -69.23071 0.5 11.84618
v -63.78676 0.5 11.84618
v -81.97742 0 11.49313
v -79.34054 0 10.65412
v -81.97742 0.5 11.49313
v -79.34054 0.5 10.65412
v -81.39661 0 17.06891
v -81.39661 0.5 17.06891
v -74.55453 0 10.83473
v -74.55453 0.5 10.83473
v -68.74404 0 11.34618
v -63.81854 0 11.34618
v -68.74404 0.5 11.34618
v -63.81854 0.5 11.34618
v -63.69963 0 17.17301
v -63.69963 0.5 17.17301
v -78.80754 0 0.5090942
v -78.56803 0 -5.359146
v -78.80754 0.5 0.5090942
v -78.56803 0.5 -5.359146
v -74.07051 0 -4.759476
v -74.07051 0.5 -4.759476
v -74.55453 0 0.7069101
v -74.55453 0.5 0.7069101
v -67.63695 0 -3.885242
v -64.07269 0 -3.687229
v -67.63695 0.5 -3.885242
v -64.07269 0.5 -3.687229
v -64.43336 0 1.963339
v -64.43336 0.5 1.963339
v -69.0108 0 1.476378
v -69.0108 0.5 1.476378
v -73.38566 0 -8.672949
v -67.53877 0 -8.205196
v -73.38566 0.5 -8.672949
v -67.53877 0.5 -8.205196
v -79.27214 0 11.15706
v -74.05453 0 11.35395
v -79.27214 4 11.15706
v -81.99898 4 11.84618
v -79.34054 4 10.65412
v -81.97742 4 11.49313
v -74.05453 4 11.35395
v -74.55453 4 10.83473
v -74.05453 0 0.2296257
v -74.05453 4 0.2296257
v -74.55453 4 0.7069101
v -78.28768 0 0.03273392
v -78.28768 4 0.03273392
v -78.80754 4 0.5090942
v -78.0908 0 -4.79109
v -78.0908 4 -4.79109
v -78.56803 4 -5.359146
v -73.66075 0 -4.200417
v -73.66075 4 -4.200417
v -74.07052 4 -4.759476
v -72.97163 0 -8.138229
v -72.97163 4 -8.138229
v -73.38566 4 -8.672949
v -68.04937 0 -7.744448
v -68.04937 4 -7.744448
v -67.53877 4 -8.205196
v -68.14781 0 -3.412853
v -68.14781 4 -3.412853
v -67.63695 4 -3.885242
v -64.60378 0 -3.215963
v -64.60378 4 -3.215963
v -64.07269 4 -3.687229
v -64.89912 0 1.410969
v -64.89912 4 1.410969
v -64.43336 4 1.963339
v -69.52605 0 0.9187431
v -69.52605 4 0.9187431
v -69.0108 4 1.476378
v -69.23071 0 11.84618
v -69.23071 4 11.84618
v -68.74404 4 11.34618
v -64.30844 0 11.84618
v -63.78676 4 11.84618
v -63.81854 4 11.34618
v -64.21 0 16.67
v -80.94571 0 16.57155
v -81.40334 4 16.57155
v -63.65402 4 16.67
v -81.39661 4 17.06891
v -63.69963 4 17.17301
v -81.43793 0 11.84618

vt -0.5559807 0
vt 17.19334 -0.09844589
vt 17.78897 -4.823822
vt 15.06214 -5.512939
vt 9.844536 -5.316049
vt 9.844536 -16.44037
vt 14.07768 -16.63727
vt 13.8808 -21.46109
vt 9.450752 -20.87042
vt 8.761635 -24.80823
vt 3.839371 -24.41445
vt 3.937813 -20.08285
vt 0.3937836 -19.88596
vt 0.6891174 -15.25903
vt 5.316048 -15.75126
vt 5.020714 -4.823822
vt -0.4232407 -4.823822
vt 15.36138 0
vt 12.59424 0
vt 15.36138 0.5
vt 12.59424 0.5
vt -1.383868 0
vt -6.989816 0
vt -1.383868 0.5
vt -6.989816 0.5
vt 15.34663 0
vt 10.55722 0
vt 15.34663 0.5
vt 10.55722 0.5
vt 4.534045 0
vt -0.3914583 0
vt 4.534045 0.5
vt -0.3914583 0.5
vt 5.314727 0
vt -0.5133193 0
vt 5.314727 0.5
vt -0.5133193 0.5
vt -15.55216 0
vt -21.42529 0
vt -15.55216 0.5
vt -21.42529 0.5
vt 17.14354 0
vt 12.60623 0
vt 17.14354 0.5
vt 12.60623 0.5
vt -11.07504 0
vt -15.33264 0
vt -11.07504 0.5
vt -15.33264 0.5
vt 4.561864 0
vt 0.9921057 0
vt 4.561864 0.5
vt 0.9921057 0.5
vt 20.32463 0
vt 14.66257 0
vt 20.32463 0.5
vt 14.66257 0.5
vt -1.777861 0
vt -6.381127 0
vt -1.777861 0.5
vt -6.381127 0.5
vt 11.16742 0
vt 5.301854 0
vt 11.16742 0.5
vt 5.301854 0.5
vt -19.40893 0
vt -23.38187 0
vt -19.40893 0.5
vt -23.38187 0.5
vt 24.79314 0
vt 20.47207 0
vt 24.79314 0.5
vt 20.47207 0.5
vt -5.835272 0
vt -15.96309 0
vt -5.835272 0.5
vt -15.96309 0.5
vt 15.31778 0
vt 5.444375 0
vt 15.31778 0.5
vt 5.444375 0.5
vt 0.5133193 0
vt -17.18396 0
vt 0.5133193 0.5
vt -17.18396 0.5
vt -15.06214 -5.512939
vt -9.844536 -5.316049
vt -15.13054 -6.015876
vt -10.34454 -5.835272
vt 15.13054 -6.015877
vt 17.76742 -5.176868
vt 10.34454 -5.835272
vt -9.844536 -16.44037
vt -10.34454 -15.96309
vt 10.34454 -15.96309
vt -14.07768 -16.63727
vt -14.59754 -16.16091
vt 14.59754 -16.16091
vt -13.8808 -21.46109
vt -14.35803 -22.02915
vt 14.35803 -22.02915
vt -9.450752 -20.87042
vt -9.860516 -21.42948
vt 9.860519 -21.42948
vt -8.761635 -24.80823
vt -9.175657 -25.34295
vt 9.175659 -25.34295
vt -3.839371 -24.41445
vt -3.328771 -24.8752
vt 3.328773 -24.8752
vt -3.937813 -20.08285
vt -3.426948 -20.55524
vt 3.426949 -20.55524
vt -0.3937836 -19.88596
vt 0.1373144 -20.35723
vt -0.1373138 -20.35723
vt -0.6891174 -15.25903
vt -0.2233573 -14.70666
vt 0.2233582 -14.70666
vt -5.316048 -15.75126
vt -4.800794 -15.19362
vt 4.800797 -15.19362
vt -5.020714 -4.823822
vt -4.534045 -5.323822
vt 4.534042 -5.323822
vt -0.09844208 -4.823822
vt 0.3914583 -5.323822
vt -0.3914566 -5.323822
vt 0 0
vt 0.5103693 0.5030108
vt -16.73571 -0.09844589
vt -17.18661 0.3989104
vt 17.18661 0.3989105
vt -0.5103683 0.5030117
vt -17.22794 -4.823822
vt -17.76742 -5.176868
vt 20.87716 0.5
vt 16.04932 0.5
vt 20.87716 4
vt 16.04932 4
vt 17.14354 0.4999979
vt 12.60623 0.4999979
vt 17.14355 3.999998
vt 12.60623 3.999998
vt -15.55216 4
vt -21.42528 4
vt 14.83547 0.5
vt 10.59775 0.5
vt 14.83547 4
vt 10.59775 4
vt -11.07504 4
vt -15.33264 4
vt 16.44037 0.5
vt 5.316049 0.5
vt 16.44037 4
vt 5.316049 4
vt -5.835272 4
vt -15.96309 4
vt -10.038 0.5
vt -15.25932 0.5
vt -10.038 4
vt -15.25932 4
vt 15.34663 4.000001
vt 10.55722 4.000001
vt -13.25229 0.5
vt -16.06485 0.5
vt -13.25229 4
vt -16.06485 4
vt 15.36138 4.000002
vt 12.59424 4.000002
vt 17.19362 0.5
vt -0.5559722 0.5
vt 17.19362 4
vt -0.5559722 4
vt 0.5133184 4
vt -17.18396 4
vt 0.4232407 0.5
vt -5.020714 0.5
vt 0.4232407 4
vt -5.020714 4
vt 4.534042 4
vt -0.3914566 4
vt -4.957705 0.5
vt -15.88913 0.5
vt -4.957705 4
vt -15.88913 4
vt 15.31778 4.000003
vt 5.444375 4.000003
vt 6.952479 0.5
vt 2.29944 0.5
vt 6.952479 4
vt 2.29944 4
vt -1.777861 0.4999996
vt -6.381127 0.4999996
vt -1.777861 4
vt -6.381129 4
vt -15.18415 0.5
vt -19.82049 0.5
vt -15.18415 4
vt -19.82049 4
vt 20.32463 4
vt 14.66257 4
vt -1.496249 0.5
vt -5.045743 0.5
vt -1.496249 4
vt -5.045743 4
vt 4.561864 0.4999999
vt 0.9921056 0.4999999
vt 4.561864 4
vt 0.9921062 4
vt -19.9882 0.5
vt -24.32091 0.5
vt -19.9882 4
vt -24.32091 4
vt 24.79314 4.000003
vt 20.47207 4.000003
vt -5.774082 0.5
vt -10.71207 0.5
vt -5.774082 4
vt -10.71207 4
vt 11.16742 0.4999989
vt 5.301854 0.4999989
vt 11.16742 3.999999
vt 5.301857 3.999999
vt 22.92653 0.5
vt 18.92887 0.5
vt 22.92653 4
vt 18.92887 4
vt -19.40893 4.000014
vt -23.38187 4.000014
vt -12.12616 0.5
vt -16.59542 0.5
vt -12.12616 4
vt -16.59542 4

vn 0 1 0
vn -0.3032042 0 -0.9529256
vn -0.9946185 0 0.1036058
vn 0.03770903 0 -0.9992887
vn 0 0 -1
vn 0.9997919 0 -0.02040324
vn -0.9991682 0 -0.04078108
vn 0.1321641 0 -0.9912279
vn -0.04646179 0 0.9989201
vn 0.05546967 0 -0.9984604
vn 0.9979692 0 0.06369967
vn -0.1057858 0 0.9943889
vn 0.07974548 0 -0.9968152
vn -0.9850305 0 -0.1723805
vn 0.9997419 0 0.02272063
vn -1 0 0
vn 0.999635 0 -0.02701696
vn -0.005882282 0 0.9999827
vn 0 -1 0
vn 0.9991681 0 0.040781
vn 0.04646169 0 -0.9989201
vn 1 0 0
vn -0.03770902 0 0.9992888
vn 0.2450142 0 0.9695195
vn 0.005546375 0 -0.9999846
vn 0 0 1
vn -0.999635 0 0.02701696
vn 0.1057858 0 -0.9943889
vn -0.9979692 0 -0.06369967
vn -0.05546984 0 0.9984604
vn -0.9997419 0 -0.02272066
vn -0.07974534 0 0.9968153
vn 0.9850305 0 0.1723804
vn -0.1321639 0 0.9912279

usemtl SpaceshipMaterial
f 2/2/1 4/4/1 3/3/1
f 2/2/1 5/5/1 4/4/1
f 1/1/1 17/17/1 16/16/1
f 9/9/1 8/8/1 7/7/1
f 6/6/1 9/9/1 7/7/1
f 14/14/1 13/13/1 12/12/1
f 14/14/1 12/12/1 15/15/1
f 9/9/1 11/11/1 10/10/1
f 9/9/1 12/12/1 11/11/1
f 15/15/1 12/12/1 9/9/1
f 6/6/1 15/15/1 9/9/1
f 15/15/1 6/6/1 5/5/1
f 5/5/1 16/16/1 15/15/1
f 1/1/1 16/16/1 5/5/1
f 2/2/1 1/1/1 5/5/1
f 21/21/2 19/19/2 18/18/2
f 18/18/2 20/20/2 21/21/2
f 20/25/3 18/23/3 22/22/3
f 22/22/3 23/24/3 20/25/3
f 25/29/4 24/27/4 19/26/4
f 19/26/4 21/28/4 25/29/4
f 29/33/5 27/31/5 26/30/5
f 26/30/5 28/32/5 29/33/5
f 31/37/6 30/35/6 27/34/6
f 27/34/6 29/36/6 31/37/6
f 35/41/7 33/39/7 32/38/7
f 32/38/7 34/40/7 35/41/7
f 37/45/8 36/43/8 33/42/8
f 33/42/8 35/44/8 37/45/8
f 34/49/9 32/47/9 38/46/9
f 38/46/9 39/48/9 34/49/9
f 43/53/10 41/51/10 40/50/10
f 40/50/10 42/52/10 43/53/10
f 45/57/11 44/55/11 41/54/11
f 41/54/11 43/56/11 45/57/11
f 47/61/12 46/59/12 44/58/12
f 44/58/12 45/60/12 47/61/12
f 51/65/13 49/63/13 48/62/13
f 48/62/13 50/64/13 51/65/13
f 50/69/14 48/67/14 36/66/14
f 36/66/14 37/68/14 50/69/14
f 42/73/15 40/71/15 49/70/15
f 49/70/15 51/72/15 42/73/15
f 39/77/16 38/75/16 24/74/16
f 24/74/16 25/76/16 39/77/16
f 28/81/17 26/79/17 46/78/17
f 46/78/17 47/80/17 28/81/17
f 23/85/18 22/83/18 30/82/18
f 30/82/18 31/84/18 23/85/18
f 24/89/19 53/87/19 52/86/19
f 52/86/19 19/88/19 24/89/19
f 57/91/1 55/3/1 54/4/1
f 54/4/1 56/90/1 57/91/1
f 56/90/1 54/4/1 58/5/1
f 58/5/1 59/92/1 56/90/1
f 38/94/19 60/93/19 53/87/19
f 53/87/19 24/89/19 38/94/19
f 59/92/1 58/5/1 61/6/1
f 61/6/1 62/95/1 59/92/1
f 32/97/19 63/96/19 60/93/19
f 60/93/19 38/94/19 32/97/19
f 62/95/1 61/6/1 64/7/1
f 64/7/1 65/98/1 62/95/1
f 33/100/19 66/99/19 63/96/19
f 63/96/19 32/97/19 33/100/19
f 65/98/1 64/7/1 67/8/1
f 67/8/1 68/101/1 65/98/1
f 36/103/19 69/102/19 66/99/19
f 66/99/19 33/100/19 36/103/19
f 68/101/1 67/8/1 70/9/1
f 70/9/1 71/104/1 68/101/1
f 48/106/19 72/105/19 69/102/19
f 69/102/19 36/103/19 48/106/19
f 71/104/1 70/9/1 73/10/1
f 73/10/1 74/107/1 71/104/1
f 49/109/19 75/108/19 72/105/19
f 72/105/19 48/106/19 49/109/19
f 74/107/1 73/10/1 76/11/1
f 76/11/1 77/110/1 74/107/1
f 40/112/19 78/111/19 75/108/19
f 75/108/19 49/109/19 40/112/19
f 77/110/1 76/11/1 79/12/1
f 79/12/1 80/113/1 77/110/1
f 41/115/19 81/114/19 78/111/19
f 78/111/19 40/112/19 41/115/19
f 80/113/1 79/12/1 82/13/1
f 82/13/1 83/116/1 80/113/1
f 44/118/19 84/117/19 81/114/19
f 81/114/19 41/115/19 44/118/19
f 83/116/1 82/13/1 85/14/1
f 85/14/1 86/119/1 83/116/1
f 46/121/19 87/120/19 84/117/19
f 84/117/19 44/118/19 46/121/19
f 86/119/1 85/14/1 88/15/1
f 88/15/1 89/122/1 86/119/1
f 26/124/19 90/123/19 87/120/19
f 87/120/19 46/121/19 26/124/19
f 89/122/1 88/15/1 91/16/1
f 91/16/1 92/125/1 89/122/1
f 27/127/19 93/126/19 90/123/19
f 90/123/19 26/124/19 27/127/19
f 92/125/1 91/16/1 94/17/1
f 94/17/1 95/128/1 92/125/1
f 30/130/19 96/129/19 93/126/19
f 93/126/19 27/127/19 30/130/19
f 22/132/19 97/131/19 96/129/19
f 96/129/19 30/130/19 22/132/19
f 101/134/1 99/1/1 98/2/1
f 98/2/1 100/133/1 101/134/1
f 18/136/19 102/135/19 97/131/19
f 97/131/19 22/132/19 18/136/19
f 19/88/19 52/86/19 102/135/19
f 102/135/19 18/136/19 19/88/19
f 64/140/20 7/138/20 8/137/20
f 8/137/20 67/139/20 64/140/20
f 71/144/8 37/142/8 35/141/8
f 35/141/8 68/143/8 71/144/8
f 68/146/7 35/41/7 34/40/7
f 34/40/7 65/145/7 68/146/7
f 61/150/21 6/148/21 7/147/21
f 7/147/21 64/149/21 61/150/21
f 65/152/9 34/49/9 39/48/9
f 39/48/9 62/151/9 65/152/9
f 58/156/22 5/154/22 6/153/22
f 6/153/22 61/155/22 58/156/22
f 62/158/16 39/77/16 25/76/16
f 25/76/16 59/157/16 62/158/16
f 54/162/23 4/160/23 5/159/23
f 5/159/23 58/161/23 54/162/23
f 59/164/4 25/29/4 21/28/4
f 21/28/4 56/163/4 59/164/4
f 55/168/24 3/166/24 4/165/24
f 4/165/24 54/167/24 55/168/24
f 56/170/2 21/21/2 20/20/2
f 20/20/2 57/169/2 56/170/2
f 99/174/25 1/172/25 2/171/25
f 2/171/25 98/173/25 99/174/25
f 100/176/18 23/85/18 31/84/18
f 31/84/18 101/175/18 100/176/18
f 91/180/26 16/178/26 17/177/26
f 17/177/26 94/179/26 91/180/26
f 95/182/5 29/33/5 28/32/5
f 28/32/5 92/181/5 95/182/5
f 88/186/27 15/184/27 16/183/27
f 16/183/27 91/185/27 88/186/27
f 92/188/17 28/81/17 47/80/17
f 47/80/17 89/187/17 92/188/17
f 85/192/28 14/190/28 15/189/28
f 15/189/28 88/191/28 85/192/28
f 89/196/12 47/194/12 45/193/12
f 45/193/12 86/195/12 89/196/12
f 82/200/29 13/198/29 14/197/29
f 14/197/29 85/199/29 82/200/29
f 86/202/11 45/57/11 43/56/11
f 43/56/11 83/201/11 86/202/11
f 79/206/30 12/204/30 13/203/30
f 13/203/30 82/205/30 79/206/30
f 83/210/10 43/208/10 42/207/10
f 42/207/10 80/209/10 83/210/10
f 76/214/31 11/212/31 12/211/31
f 12/211/31 79/213/31 76/214/31
f 80/216/15 42/73/15 51/72/15
f 51/72/15 77/215/15 80/216/15
f 73/220/32 10/218/32 11/217/32
f 11/217/32 76/219/32 73/220/32
f 77/224/13 51/222/13 50/221/13
f 50/221/13 74/223/13 77/224/13
f 70/228/33 9/226/33 10/225/33
f 10/225/33 73/227/33 70/228/33
f 74/230/14 50/69/14 37/68/14
f 37/68/14 71/229/14 74/230/14
f 67/234/34 8/232/34 9/231/34
f 9/231/34 70/233/34 67/234/34

